<?xml version="1.0" encoding="utf-8"?>
<!-- Generator: Adobe Illustrator 22.1.0, SVG Export Plug-In . SVG Version: 6.00 Build 0)  -->
<svg version="1.1" id="Layer_1" xmlns="http://www.w3.org/2000/svg" xmlns:xlink="http://www.w3.org/1999/xlink" x="0px" y="0px"
	 viewBox="0 0 400 400" style="enable-background:new 0 0 400 400;" xml:space="preserve">
<style type="text/css">
	.st0{fill:#4F4F4F;}
	.st1{fill:none;stroke:#4F4F4F;stroke-width:18;stroke-linecap:round;stroke-linejoin:round;stroke-miterlimit:10;}
	.st2{fill:none;stroke:#4F4F4F;stroke-width:23;stroke-linecap:round;stroke-linejoin:round;stroke-miterlimit:10;}
	.st3{fill:#4F4F4F;stroke:#FFFFFF;stroke-width:23;stroke-linecap:round;stroke-linejoin:round;stroke-miterlimit:10;}
	.st4{fill:#4F4F4F;stroke:#FFFFFF;stroke-width:3;stroke-miterlimit:10;}
</style>
<polygon class="st0" points="327.7,80.8 327.7,111.6 325.1,110.5 323,111.6 323,80.8 "/>
<polygon class="st1" points="352.8,375.4 52.3,375.4 52.3,27.5 301.6,27.5 352.8,66.4 "/>
<path class="st1" d="M80.4,168.2"/>
<line class="st2" x1="87.8" y1="72.9" x2="197.7" y2="72.9"/>
<line class="st2" x1="87.8" y1="115.9" x2="197.7" y2="115.9"/>
<line class="st2" x1="87.8" y1="165.7" x2="293.2" y2="165.7"/>
<line class="st2" x1="87.8" y1="218.9" x2="293.2" y2="218.9"/>
<line class="st2" x1="87.8" y1="272" x2="293.2" y2="272"/>
<path class="st3" d="M286.1,87.4"/>
<path class="st0" d="M251.5,116c0,0,2.9,7.6,23.8,7.6s25-5.5,25-5.5V86.5h-48.8"/>
<polygon class="st4" points="275,63.3 217.1,80.8 275,98.3 334.7,80.9 "/>
<line class="st2" x1="85.8" y1="325.2" x2="291.2" y2="325.2"/>
</svg>
