<?xml version="1.0" encoding="utf-8"?>
<!-- Generator: Adobe Illustrator 22.1.0, SVG Export Plug-In . SVG Version: 6.00 Build 0)  -->
<svg version="1.1" id="Layer_1" xmlns="http://www.w3.org/2000/svg" xmlns:xlink="http://www.w3.org/1999/xlink" x="0px" y="0px"
	 viewBox="0 0 14 13" style="enable-background:new 0 0 14 13;" xml:space="preserve">
<style type="text/css">
	.st0{fill:#999999;}
	.st1{fill:#999999;stroke:#FFFFFF;stroke-width:0.25;stroke-miterlimit:10;}
</style>
<path class="st0" d="M4.1,2.3C3.2,2.3,2.4,3.1,2.4,4s0.8,1.7,1.7,1.7S5.9,5,5.9,4S5.1,2.3,4.1,2.3z M2.4,5C1.9,5.1,1.5,5.6,1.5,6.2
	v2.5h5.2V6.2c0-0.6-0.4-1.1-0.9-1.2c-0.4,0.6-1,0.9-1.7,0.9S2.8,5.5,2.4,5C2.4,5,2.4,5,2.4,5L2.4,5L2.4,5z"/>
<path class="st0" d="M9.9,2.3C8.9,2.3,8.1,3.1,8.1,4s0.8,1.7,1.7,1.7c0.9,0,1.7-0.8,1.7-1.7S10.8,2.3,9.9,2.3z M8.1,5
	C7.6,5.1,7.3,5.6,7.3,6.2v2.5h5.2V6.2c0-0.6-0.4-1.1-0.9-1.2c-0.4,0.6-1,0.9-1.7,0.9S8.5,5.5,8.1,5C8.1,5,8.1,5,8.1,5L8.1,5L8.1,5z"
	/>
<path class="st1" d="M7,4C5.7,4,4.6,5.1,4.6,6.4S5.7,8.8,7,8.8s2.4-1.1,2.4-2.4S8.3,4,7,4z M4.8,7.5C4.2,7.6,3.7,8.3,3.7,9v3.1h6.5
	V9c0-0.7-0.5-1.4-1.1-1.5C8.7,8.2,7.9,8.7,7,8.7S5.4,8.2,4.8,7.5C4.8,7.5,4.8,7.5,4.8,7.5L4.8,7.5L4.8,7.5z"/>
</svg>
