<?xml version="1.0" encoding="utf-8"?>
<!-- Generator: Adobe Illustrator 22.1.0, SVG Export Plug-In . SVG Version: 6.00 Build 0)  -->
<svg version="1.1"
	 id="svg2" inkscape:version="0.91 r13725" sodipodi:docname="project_fuse.svg" xmlns:cc="http://creativecommons.org/ns#" xmlns:dc="http://purl.org/dc/elements/1.1/" xmlns:inkscape="http://www.inkscape.org/namespaces/inkscape" xmlns:rdf="http://www.w3.org/1999/02/22-rdf-syntax-ns#" xmlns:sodipodi="http://sodipodi.sourceforge.net/DTD/sodipodi-0.dtd" xmlns:svg="http://www.w3.org/2000/svg"
	 xmlns="http://www.w3.org/2000/svg" xmlns:xlink="http://www.w3.org/1999/xlink" x="0px" y="0px" viewBox="0 0 595.3 841.9"
	 style="enable-background:new 0 0 595.3 841.9;" xml:space="preserve">
<style type="text/css">
	.st0{enable-background:new    ;}
	.st1{fill:#FFFFFF;}
	.st2{fill:#51A0FF;stroke:#000000;}
	.st3{fill:#4E4EF9;}
</style>
<sodipodi:namedview  bordercolor="#666666" borderopacity="1" gridtolerance="10" guidetolerance="10" id="namedview30" inkscape:current-layer="jvs-content" inkscape:cx="536.32636" inkscape:cy="496.00886" inkscape:pageopacity="0" inkscape:pageshadow="2" inkscape:window-height="1056" inkscape:window-maximized="1" inkscape:window-width="1920" inkscape:window-x="0" inkscape:window-y="24" inkscape:zoom="1.5857392" objecttolerance="10" pagecolor="#ffffff" showgrid="false">
	</sodipodi:namedview>
<desc  id="desc6"></desc>
<g id="jvs-guides" transform="matrix(1 0 0 1 0 0)">
</g>
<g id="jvs-content" class="st0">
	<g id="g12" transform="matrix(1,0,0,1,0,0)">
		<path id="path14" class="st1" d="M144,271l169.1,51.6l6.8,4l4.1,6.9l1.5,153.4l-2.2,5.3l-3.6,3.9l-119.1,45.7l3.6,120.4l-49.4-0.3
			l-7-159.3L274.9,463l-1.6-101l-130.2-33.3L144,271z"/>
		<path id="path16" class="st1" d="M0,0"/>
		<path id="path18" class="st2" d="M275.4,365.4"/>
		<path id="path20" class="st2" d="M275.4,365.4"/>
		<path id="path22" class="st2" d="M275.4,368.2"/>
		<path id="path24" class="st3" d="M329.9,321.7v55.4l164.4-46.1v-60.4L329.9,321.7z"/>
		<path id="path26" class="st3" d="M336.2,428.3l0.5,57.8l130-40.3V393L336.2,428.3z"/>
		<path id="path28" class="st3" d="M325.7,500.4v161.9h-47.2L278,523.7L325.7,500.4z"/>
	</g>
</g>
</svg>
