<svg xmlns="http://www.w3.org/2000/svg" xmlns:xlink="http://www.w3.org/1999/xlink" class="" app-context="doc-2d" x="0px" y="0px" width="595.2755905512" height="841.8897637795" jvs-fullPath="_new_1508865405458/Untitled"><title/><desc/><defs/><g id="jvs-guides" transform="matrix(1 0 0 1 0 0)"/><g id="jvs-content" enable-background="new"><g transform="matrix(1,0,0,1,0,0)" name="Layer" jvs-layer-color="#fb0094" class="jvs-layer selected"><path fill="rgb(255,255,255)" stroke="none" stroke-width="1" stroke-linecap="butt" stroke-linejoin="miter" opacity="1" d="M 144.02359008789062 270.95404052734375 L 313.14837646484375 322.54339599609375 L 319.9594421386719 326.5387268066406 L 324.0516357421875 333.4466857910156 L 325.5697021484375 486.8014831542969 L 323.3632507324219 492.0716247558594 L 319.71337890625 496.0043029785156 L 200.56822204589844 541.7456665039062 L 204.1377716064453 662.1472778320312 L 154.7337188720703 661.891357421875 L 147.74508666992188 502.55352783203125 L 274.9130859375 463.010009765625 L 273.3434753417969 361.9739685058594 L 143.18698120117188 328.6806945800781 L 144.02359008789062 270.95404052734375 Z" transform="matrix(1 0 0 1 0 0)" fill-opacity="1"/><path fill="rgb(0,41,255)" stroke="#000000" stroke-width="1.00" stroke-linecap="butt" stroke-linejoin="miter" opacity="1" d="M -131.22372436523438 510.226806640625" transform="matrix(1 0 0 1 0 0)" fill-opacity="1"/><path fill="rgb(0,41,255)" stroke="#000000" stroke-width="1.00" stroke-linecap="butt" stroke-linejoin="miter" opacity="1" d="M 275.37261962890625 365.4342041015625" transform="matrix(1 0 0 1 0 0)" fill-opacity="1"/><path fill="rgb(0,41,255)" stroke="#000000" stroke-width="1.00" stroke-linecap="butt" stroke-linejoin="miter" opacity="1" d="M 275.37261962890625 365.4342041015625 Z" transform="matrix(1 0 0 1 0 0)" fill-opacity="1"/><path fill="rgb(0,41,255)" stroke="#000000" stroke-width="1.00" stroke-linecap="butt" stroke-linejoin="miter" opacity="1" d="M 275.3726501464844 368.2373046875" transform="matrix(1 0 0 1 0 0)" fill-opacity="1"/><path fill="rgb(255,0,0)" stroke="none" stroke-width="1.00" stroke-linecap="butt" stroke-linejoin="miter" opacity="1" d="M 329.9226379394531 321.7046813964844 L 329.9226379394531 377.05987548828125 L 494.31072998046875 330.9305419921875 L 494.31072998046875 270.5372619628906 L 329.9226379394531 321.7046813964844 Z" transform="matrix(1 0 0 1 0 0)" fill-opacity="1"/><path fill="rgb(255,0,0)" stroke="none" stroke-width="1.00" stroke-linecap="butt" stroke-linejoin="miter" opacity="1" d="M 336.1790771484375 428.30364990234375 L 336.6323547363281 486.1178283691406 L 466.6331481933594 445.83447265625 L 466.6331481933594 392.9888000488281 L 336.1790771484375 428.30364990234375 Z" transform="matrix(1 0 0 1 0 0)" fill-opacity="1"/><path fill="rgb(255,0,0)" stroke="none" stroke-width="1.00" stroke-linecap="butt" stroke-linejoin="miter" opacity="1" d="M 325.72906494140625 500.3509216308594 L 325.72906494140625 662.2576293945312 L 278.5772399902344 662.2576293945312 L 278.02935791015625 523.7130126953125 L 325.72906494140625 500.3509216308594 Z" transform="matrix(1 0 0 1 0 0)" fill-opacity="1"/></g></g></svg>