<?xml version="1.0" encoding="utf-8"?>
<!-- Generator: Adobe Illustrator 22.1.0, SVG Export Plug-In . SVG Version: 6.00 Build 0)  -->
<svg version="1.1" xmlns="http://www.w3.org/2000/svg" xmlns:xlink="http://www.w3.org/1999/xlink" x="0px" y="0px"
	 viewBox="0 0 14 13" style="enable-background:new 0 0 14 13;" xml:space="preserve">
<style type="text/css">
	.st0{fill:#FFFFFF;}
	.st1{fill:#999999;}
</style>
<g id="Layer_1">
	<g transform="translate(-1238.5 -175.72)">
		<path class="st0" d="M1238.5,175.7h14v13h-14V175.7z"/>
	</g>
</g>
<g id="Layer_2">
	<g>
		<g>
			<circle class="st1" cx="5.8" cy="4.4" r="2.4"/>
			<circle class="st0" cx="5.8" cy="4.4" r="1.5"/>
			<rect x="5.4" y="1.4" class="st1" width="1.1" height="1.2"/>
			<rect x="3.6" y="2.1" transform="matrix(0.7071 -0.7071 0.7071 0.7071 -0.6613 3.7376)" class="st1" width="1.1" height="1.2"/>
			
				<rect x="2.9" y="3.7" transform="matrix(4.614182e-11 -1 1 4.614182e-11 -0.9102 7.7327)" class="st1" width="1.1" height="1.2"/>
			
				<rect x="3.5" y="5.4" transform="matrix(-0.7071 -0.7071 0.7071 -0.7071 2.6234 13.1579)" class="st1" width="1.1" height="1.2"/>
			
				<rect x="5.2" y="6.2" transform="matrix(-1 -8.971947e-11 8.971947e-11 -1 11.3824 13.6108)" class="st1" width="1.1" height="1.2"/>
			
				<rect x="6.9" y="5.6" transform="matrix(-0.7071 0.7071 -0.7071 -0.7071 17.0116 5.3133)" class="st1" width="1.1" height="1.2"/>
			
				<rect x="7.6" y="3.9" transform="matrix(-1.350069e-10 1 -1 -1.350069e-10 12.7006 -3.6497)" class="st1" width="1.1" height="1.2"/>
			<rect x="7" y="2.2" transform="matrix(0.7071 0.7071 -0.7071 0.7071 4.1991 -4.515)" class="st1" width="1.1" height="1.2"/>
		</g>
		<g>
			<circle class="st1" cx="7.9" cy="9.1" r="1.9"/>
			<circle class="st0" cx="7.9" cy="9.1" r="1.2"/>
			<rect x="8" y="6.8" transform="matrix(0.9654 0.2607 -0.2607 0.9654 2.1897 -1.9577)" class="st1" width="0.9" height="1"/>
			<rect x="6.6" y="6.9" transform="matrix(0.867 -0.4983 0.4983 0.867 -2.7583 4.4693)" class="st1" width="0.9" height="1"/>
			<rect x="5.6" y="8" transform="matrix(0.2607 -0.9654 0.9654 0.2607 -3.78 12.1414)" class="st1" width="0.9" height="1"/>
			<rect x="5.7" y="9.5" transform="matrix(-0.4983 -0.867 0.867 -0.4983 0.5514 20.3563)" class="st1" width="0.9" height="1"/>
			
				<rect x="6.9" y="10.5" transform="matrix(-0.9654 -0.2607 0.2607 -0.9654 11.4904 23.4735)" class="st1" width="0.9" height="1"/>
			<rect x="8.3" y="10.4" transform="matrix(-0.867 0.4983 -0.4983 -0.867 21.8009 15.8753)" class="st1" width="0.9" height="1"/>
			<rect x="9.3" y="9.2" transform="matrix(-0.2607 0.9654 -0.9654 -0.2607 21.6512 2.8407)" class="st1" width="0.9" height="1"/>
			<rect x="9.2" y="7.7" transform="matrix(0.4983 0.867 -0.867 0.4983 11.9574 -4.2029)" class="st1" width="0.9" height="1"/>
		</g>
		<g>
			<circle class="st1" cx="9.8" cy="5.9" r="1.1"/>
			<circle class="st0" cx="9.8" cy="5.9" r="0.7"/>
			<rect x="10" y="4.6" transform="matrix(0.9404 0.34 -0.34 0.9404 2.2798 -3.19)" class="st1" width="0.5" height="0.6"/>
			<rect x="9.2" y="4.6" transform="matrix(0.9054 -0.4245 0.4245 0.9054 -1.196 4.4561)" class="st1" width="0.5" height="0.6"/>
			<rect x="8.6" y="5.2" transform="matrix(0.34 -0.9404 0.9404 0.34 0.6358 11.9203)" class="st1" width="0.5" height="0.6"/>
			
				<rect x="8.6" y="6.1" transform="matrix(-0.4245 -0.9054 0.9054 -0.4245 6.8088 17.0201)" class="st1" width="0.5" height="0.6"/>
			<rect x="9.2" y="6.7" transform="matrix(-0.9404 -0.34 0.34 -0.9404 15.8969 16.6615)" class="st1" width="0.5" height="0.6"/>
			<rect x="10" y="6.7" transform="matrix(-0.9054 0.4245 -0.4245 -0.9054 22.4699 8.8645)" class="st1" width="0.5" height="0.6"/>
			<rect x="10.6" y="6.1" transform="matrix(-0.34 0.9404 -0.9404 -0.34 20.4873 -1.6968)" class="st1" width="0.5" height="0.6"/>
			
				<rect x="10.6" y="5.2" transform="matrix(0.4245 0.9054 -0.9054 0.4245 11.2172 -6.6458)" class="st1" width="0.5" height="0.6"/>
		</g>
	</g>
</g>
</svg>
